<mxfile host="app.diagrams.net" agent="Mozilla/5.0 (Windows NT 10.0; Win64; x64) AppleWebKit/537.36 (KHTML, like Gecko) Chrome/136.0.0.0 Safari/537.36" version="26.2.3">
  <diagram id="R2lEEEUBdFMjLlhIrx00" name="Page-1">
    <mxGraphModel dx="3183" dy="1044" grid="1" gridSize="10" guides="1" tooltips="1" connect="1" arrows="1" fold="1" page="1" pageScale="1" pageWidth="850" pageHeight="1100" math="0" shadow="0" extFonts="Permanent Marker^https://fonts.googleapis.com/css?family=Permanent+Marker">
      <root>
        <mxCell id="0" />
        <mxCell id="1" parent="0" />
        <mxCell id="jEEAlRVITa8a3OwtmOjl-1" value="User" style="rounded=0;whiteSpace=wrap;html=1;" vertex="1" parent="1">
          <mxGeometry x="340" y="290" width="80" height="40" as="geometry" />
        </mxCell>
        <mxCell id="jEEAlRVITa8a3OwtmOjl-2" value="email" style="ellipse;whiteSpace=wrap;html=1;" vertex="1" parent="1">
          <mxGeometry x="240" y="380" width="70" height="40" as="geometry" />
        </mxCell>
        <mxCell id="jEEAlRVITa8a3OwtmOjl-3" value="usernamr" style="ellipse;whiteSpace=wrap;html=1;" vertex="1" parent="1">
          <mxGeometry x="425" y="220" width="90" height="50" as="geometry" />
        </mxCell>
        <mxCell id="jEEAlRVITa8a3OwtmOjl-4" value="privelleges" style="ellipse;whiteSpace=wrap;html=1;" vertex="1" parent="1">
          <mxGeometry x="440" y="360" width="80" height="40" as="geometry" />
        </mxCell>
        <mxCell id="jEEAlRVITa8a3OwtmOjl-6" value="LastJoined" style="ellipse;whiteSpace=wrap;html=1;" vertex="1" parent="1">
          <mxGeometry x="360" y="390" width="70" height="40" as="geometry" />
        </mxCell>
        <mxCell id="jEEAlRVITa8a3OwtmOjl-7" value="&lt;u&gt;UserID&lt;/u&gt;" style="ellipse;whiteSpace=wrap;html=1;" vertex="1" parent="1">
          <mxGeometry x="370" y="180" width="80" height="40" as="geometry" />
        </mxCell>
        <mxCell id="jEEAlRVITa8a3OwtmOjl-9" value="" style="endArrow=none;html=1;rounded=0;exitX=0.5;exitY=0;exitDx=0;exitDy=0;entryX=0.14;entryY=1.018;entryDx=0;entryDy=0;entryPerimeter=0;" edge="1" parent="1" source="jEEAlRVITa8a3OwtmOjl-2" target="jEEAlRVITa8a3OwtmOjl-1">
          <mxGeometry width="50" height="50" relative="1" as="geometry">
            <mxPoint x="610" y="440" as="sourcePoint" />
            <mxPoint x="660" y="390" as="targetPoint" />
          </mxGeometry>
        </mxCell>
        <mxCell id="jEEAlRVITa8a3OwtmOjl-10" value="" style="endArrow=none;html=1;rounded=0;entryX=0.409;entryY=1;entryDx=0;entryDy=0;entryPerimeter=0;exitX=0.75;exitY=0;exitDx=0;exitDy=0;" edge="1" parent="1" source="jEEAlRVITa8a3OwtmOjl-1" target="jEEAlRVITa8a3OwtmOjl-7">
          <mxGeometry width="50" height="50" relative="1" as="geometry">
            <mxPoint x="335" y="280" as="sourcePoint" />
            <mxPoint x="385" y="230" as="targetPoint" />
          </mxGeometry>
        </mxCell>
        <mxCell id="jEEAlRVITa8a3OwtmOjl-11" value="" style="endArrow=none;html=1;rounded=0;exitX=1;exitY=0;exitDx=0;exitDy=0;entryX=0;entryY=0.5;entryDx=0;entryDy=0;" edge="1" parent="1" source="jEEAlRVITa8a3OwtmOjl-1" target="jEEAlRVITa8a3OwtmOjl-3">
          <mxGeometry width="50" height="50" relative="1" as="geometry">
            <mxPoint x="610" y="440" as="sourcePoint" />
            <mxPoint x="660" y="390" as="targetPoint" />
          </mxGeometry>
        </mxCell>
        <mxCell id="jEEAlRVITa8a3OwtmOjl-12" value="" style="endArrow=none;html=1;rounded=0;exitX=1;exitY=0.5;exitDx=0;exitDy=0;entryX=0;entryY=0.5;entryDx=0;entryDy=0;" edge="1" parent="1" source="jEEAlRVITa8a3OwtmOjl-1" target="jEEAlRVITa8a3OwtmOjl-4">
          <mxGeometry width="50" height="50" relative="1" as="geometry">
            <mxPoint x="610" y="440" as="sourcePoint" />
            <mxPoint x="660" y="390" as="targetPoint" />
          </mxGeometry>
        </mxCell>
        <mxCell id="jEEAlRVITa8a3OwtmOjl-13" value="" style="endArrow=none;html=1;rounded=0;entryX=0.75;entryY=1;entryDx=0;entryDy=0;exitX=0.5;exitY=0;exitDx=0;exitDy=0;" edge="1" parent="1" source="jEEAlRVITa8a3OwtmOjl-6" target="jEEAlRVITa8a3OwtmOjl-1">
          <mxGeometry width="50" height="50" relative="1" as="geometry">
            <mxPoint x="610" y="440" as="sourcePoint" />
            <mxPoint x="660" y="390" as="targetPoint" />
          </mxGeometry>
        </mxCell>
        <mxCell id="jEEAlRVITa8a3OwtmOjl-16" value="Review" style="rounded=0;whiteSpace=wrap;html=1;" vertex="1" parent="1">
          <mxGeometry x="600" y="300" width="120" height="40" as="geometry" />
        </mxCell>
        <mxCell id="jEEAlRVITa8a3OwtmOjl-17" value="Rating" style="ellipse;whiteSpace=wrap;html=1;" vertex="1" parent="1">
          <mxGeometry x="620" y="220" width="70" height="30" as="geometry" />
        </mxCell>
        <mxCell id="jEEAlRVITa8a3OwtmOjl-18" value="Comment" style="ellipse;whiteSpace=wrap;html=1;" vertex="1" parent="1">
          <mxGeometry x="590" y="380" width="70" height="40" as="geometry" />
        </mxCell>
        <mxCell id="jEEAlRVITa8a3OwtmOjl-19" value="ReviewDate" style="ellipse;whiteSpace=wrap;html=1;" vertex="1" parent="1">
          <mxGeometry x="700" y="410" width="70" height="30" as="geometry" />
        </mxCell>
        <mxCell id="jEEAlRVITa8a3OwtmOjl-20" value="UserID" style="ellipse;whiteSpace=wrap;html=1;" vertex="1" parent="1">
          <mxGeometry x="745" y="360" width="70" height="40" as="geometry" />
        </mxCell>
        <mxCell id="jEEAlRVITa8a3OwtmOjl-21" value="ProductID" style="ellipse;whiteSpace=wrap;html=1;" vertex="1" parent="1">
          <mxGeometry x="740" y="220" width="80" height="30" as="geometry" />
        </mxCell>
        <mxCell id="jEEAlRVITa8a3OwtmOjl-22" value="RetailerID" style="ellipse;whiteSpace=wrap;html=1;" vertex="1" parent="1">
          <mxGeometry x="700" y="180" width="70" height="40" as="geometry" />
        </mxCell>
        <mxCell id="jEEAlRVITa8a3OwtmOjl-23" value="&lt;u&gt;RevieID&lt;/u&gt;" style="ellipse;whiteSpace=wrap;html=1;" vertex="1" parent="1">
          <mxGeometry x="550" y="210" width="70" height="40" as="geometry" />
        </mxCell>
        <mxCell id="jEEAlRVITa8a3OwtmOjl-24" value="" style="endArrow=none;html=1;rounded=0;entryX=0;entryY=0.5;entryDx=0;entryDy=0;exitX=0.75;exitY=1;exitDx=0;exitDy=0;" edge="1" parent="1" source="jEEAlRVITa8a3OwtmOjl-16" target="jEEAlRVITa8a3OwtmOjl-19">
          <mxGeometry width="50" height="50" relative="1" as="geometry">
            <mxPoint x="620" y="450" as="sourcePoint" />
            <mxPoint x="670" y="400" as="targetPoint" />
          </mxGeometry>
        </mxCell>
        <mxCell id="jEEAlRVITa8a3OwtmOjl-25" value="" style="endArrow=none;html=1;rounded=0;entryX=0;entryY=0.5;entryDx=0;entryDy=0;exitX=1;exitY=1;exitDx=0;exitDy=0;" edge="1" parent="1" source="jEEAlRVITa8a3OwtmOjl-16" target="jEEAlRVITa8a3OwtmOjl-20">
          <mxGeometry width="50" height="50" relative="1" as="geometry">
            <mxPoint x="600" y="430" as="sourcePoint" />
            <mxPoint x="714.9999999999923" y="300" as="targetPoint" />
          </mxGeometry>
        </mxCell>
        <mxCell id="jEEAlRVITa8a3OwtmOjl-26" value="" style="endArrow=none;html=1;rounded=0;entryX=0;entryY=1;entryDx=0;entryDy=0;exitX=1;exitY=0.25;exitDx=0;exitDy=0;" edge="1" parent="1" source="jEEAlRVITa8a3OwtmOjl-16" target="jEEAlRVITa8a3OwtmOjl-21">
          <mxGeometry width="50" height="50" relative="1" as="geometry">
            <mxPoint x="570" y="430" as="sourcePoint" />
            <mxPoint x="620" y="380" as="targetPoint" />
          </mxGeometry>
        </mxCell>
        <mxCell id="jEEAlRVITa8a3OwtmOjl-27" value="" style="endArrow=none;html=1;rounded=0;entryX=0.5;entryY=1;entryDx=0;entryDy=0;exitX=1;exitY=0;exitDx=0;exitDy=0;" edge="1" parent="1" source="jEEAlRVITa8a3OwtmOjl-16" target="jEEAlRVITa8a3OwtmOjl-22">
          <mxGeometry width="50" height="50" relative="1" as="geometry">
            <mxPoint x="605" y="410" as="sourcePoint" />
            <mxPoint x="730" y="200" as="targetPoint" />
          </mxGeometry>
        </mxCell>
        <mxCell id="jEEAlRVITa8a3OwtmOjl-28" value="" style="endArrow=none;html=1;rounded=0;exitX=0;exitY=0.5;exitDx=0;exitDy=0;entryX=0.321;entryY=0.021;entryDx=0;entryDy=0;entryPerimeter=0;" edge="1" parent="1" source="jEEAlRVITa8a3OwtmOjl-17" target="jEEAlRVITa8a3OwtmOjl-16">
          <mxGeometry width="50" height="50" relative="1" as="geometry">
            <mxPoint x="610" y="440" as="sourcePoint" />
            <mxPoint x="600" y="280" as="targetPoint" />
          </mxGeometry>
        </mxCell>
        <mxCell id="jEEAlRVITa8a3OwtmOjl-29" value="" style="endArrow=none;html=1;rounded=0;entryX=0.114;entryY=-0.035;entryDx=0;entryDy=0;entryPerimeter=0;exitX=0;exitY=1;exitDx=0;exitDy=0;" edge="1" parent="1" source="jEEAlRVITa8a3OwtmOjl-23" target="jEEAlRVITa8a3OwtmOjl-16">
          <mxGeometry width="50" height="50" relative="1" as="geometry">
            <mxPoint x="610" y="440" as="sourcePoint" />
            <mxPoint x="660" y="390" as="targetPoint" />
          </mxGeometry>
        </mxCell>
        <mxCell id="jEEAlRVITa8a3OwtmOjl-30" value="" style="endArrow=none;html=1;rounded=0;exitX=0.5;exitY=0;exitDx=0;exitDy=0;entryX=0.389;entryY=1.022;entryDx=0;entryDy=0;entryPerimeter=0;" edge="1" parent="1" source="jEEAlRVITa8a3OwtmOjl-18" target="jEEAlRVITa8a3OwtmOjl-16">
          <mxGeometry width="50" height="50" relative="1" as="geometry">
            <mxPoint x="610" y="440" as="sourcePoint" />
            <mxPoint x="660" y="390" as="targetPoint" />
          </mxGeometry>
        </mxCell>
        <mxCell id="jEEAlRVITa8a3OwtmOjl-31" value="leaves_a" style="rhombus;whiteSpace=wrap;html=1;" vertex="1" parent="1">
          <mxGeometry x="490" y="290" width="80" height="50" as="geometry" />
        </mxCell>
        <mxCell id="jEEAlRVITa8a3OwtmOjl-33" value="" style="endArrow=none;html=1;rounded=0;entryX=0;entryY=0.5;entryDx=0;entryDy=0;exitX=1;exitY=0.25;exitDx=0;exitDy=0;" edge="1" parent="1" source="jEEAlRVITa8a3OwtmOjl-1" target="jEEAlRVITa8a3OwtmOjl-31">
          <mxGeometry relative="1" as="geometry">
            <mxPoint x="550" y="410" as="sourcePoint" />
            <mxPoint x="710" y="410" as="targetPoint" />
          </mxGeometry>
        </mxCell>
        <mxCell id="jEEAlRVITa8a3OwtmOjl-34" value="1" style="resizable=0;html=1;whiteSpace=wrap;align=right;verticalAlign=bottom;" connectable="0" vertex="1" parent="jEEAlRVITa8a3OwtmOjl-33">
          <mxGeometry x="1" relative="1" as="geometry" />
        </mxCell>
        <mxCell id="jEEAlRVITa8a3OwtmOjl-35" value="" style="endArrow=none;html=1;rounded=0;entryX=1;entryY=0.5;entryDx=0;entryDy=0;exitX=0;exitY=0.5;exitDx=0;exitDy=0;" edge="1" parent="1" source="jEEAlRVITa8a3OwtmOjl-16" target="jEEAlRVITa8a3OwtmOjl-31">
          <mxGeometry relative="1" as="geometry">
            <mxPoint x="550" y="410" as="sourcePoint" />
            <mxPoint x="710" y="410" as="targetPoint" />
          </mxGeometry>
        </mxCell>
        <mxCell id="jEEAlRVITa8a3OwtmOjl-36" value="N" style="resizable=0;html=1;whiteSpace=wrap;align=right;verticalAlign=bottom;" connectable="0" vertex="1" parent="jEEAlRVITa8a3OwtmOjl-35">
          <mxGeometry x="1" relative="1" as="geometry" />
        </mxCell>
        <mxCell id="jEEAlRVITa8a3OwtmOjl-40" value="&lt;u&gt;ProductID&lt;/u&gt;" style="ellipse;whiteSpace=wrap;html=1;" vertex="1" parent="1">
          <mxGeometry x="-20" y="170" width="80" height="40" as="geometry" />
        </mxCell>
        <mxCell id="jEEAlRVITa8a3OwtmOjl-41" value="&lt;u&gt;UserID&lt;/u&gt;" style="ellipse;whiteSpace=wrap;html=1;" vertex="1" parent="1">
          <mxGeometry x="70" y="160" width="70" height="20" as="geometry" />
        </mxCell>
        <mxCell id="jEEAlRVITa8a3OwtmOjl-42" value="DateAdded" style="ellipse;whiteSpace=wrap;html=1;" vertex="1" parent="1">
          <mxGeometry x="-70" y="240" width="90" height="30" as="geometry" />
        </mxCell>
        <mxCell id="jEEAlRVITa8a3OwtmOjl-43" value="Wishlist" style="shape=ext;margin=3;double=1;whiteSpace=wrap;html=1;align=center;" vertex="1" parent="1">
          <mxGeometry x="90" y="240" width="100" height="40" as="geometry" />
        </mxCell>
        <mxCell id="jEEAlRVITa8a3OwtmOjl-44" value="" style="endArrow=none;html=1;rounded=0;exitX=0.25;exitY=0;exitDx=0;exitDy=0;entryX=0;entryY=1;entryDx=0;entryDy=0;" edge="1" parent="1" source="jEEAlRVITa8a3OwtmOjl-43" target="jEEAlRVITa8a3OwtmOjl-41">
          <mxGeometry width="50" height="50" relative="1" as="geometry">
            <mxPoint x="410" y="260" as="sourcePoint" />
            <mxPoint x="460" y="210" as="targetPoint" />
          </mxGeometry>
        </mxCell>
        <mxCell id="jEEAlRVITa8a3OwtmOjl-45" value="" style="endArrow=none;html=1;rounded=0;exitX=0;exitY=0;exitDx=0;exitDy=0;entryX=0;entryY=1;entryDx=0;entryDy=0;" edge="1" parent="1" source="jEEAlRVITa8a3OwtmOjl-43" target="jEEAlRVITa8a3OwtmOjl-40">
          <mxGeometry width="50" height="50" relative="1" as="geometry">
            <mxPoint x="410" y="260" as="sourcePoint" />
            <mxPoint x="460" y="210" as="targetPoint" />
          </mxGeometry>
        </mxCell>
        <mxCell id="jEEAlRVITa8a3OwtmOjl-46" value="" style="endArrow=none;html=1;rounded=0;entryX=0.5;entryY=1;entryDx=0;entryDy=0;exitX=0;exitY=0.75;exitDx=0;exitDy=0;" edge="1" parent="1" source="jEEAlRVITa8a3OwtmOjl-43" target="jEEAlRVITa8a3OwtmOjl-42">
          <mxGeometry width="50" height="50" relative="1" as="geometry">
            <mxPoint x="130" y="200" as="sourcePoint" />
            <mxPoint x="65.00000000000023" y="150" as="targetPoint" />
          </mxGeometry>
        </mxCell>
        <mxCell id="jEEAlRVITa8a3OwtmOjl-48" value="keeps_a" style="rhombus;whiteSpace=wrap;html=1;rotation=15;" vertex="1" parent="1">
          <mxGeometry x="240" y="225" width="80" height="40" as="geometry" />
        </mxCell>
        <mxCell id="jEEAlRVITa8a3OwtmOjl-49" value="" style="endArrow=none;html=1;rounded=0;entryX=1;entryY=0.5;entryDx=0;entryDy=0;exitX=0;exitY=0.25;exitDx=0;exitDy=0;" edge="1" parent="1" source="jEEAlRVITa8a3OwtmOjl-1" target="jEEAlRVITa8a3OwtmOjl-48">
          <mxGeometry relative="1" as="geometry">
            <mxPoint x="320" y="280" as="sourcePoint" />
            <mxPoint x="480" y="280" as="targetPoint" />
          </mxGeometry>
        </mxCell>
        <mxCell id="jEEAlRVITa8a3OwtmOjl-50" value="1" style="resizable=0;html=1;whiteSpace=wrap;align=right;verticalAlign=bottom;" connectable="0" vertex="1" parent="jEEAlRVITa8a3OwtmOjl-49">
          <mxGeometry x="1" relative="1" as="geometry" />
        </mxCell>
        <mxCell id="jEEAlRVITa8a3OwtmOjl-51" value="" style="endArrow=none;html=1;rounded=0;entryX=0;entryY=0.5;entryDx=0;entryDy=0;exitX=1;exitY=1;exitDx=0;exitDy=0;" edge="1" parent="1" source="jEEAlRVITa8a3OwtmOjl-43" target="jEEAlRVITa8a3OwtmOjl-48">
          <mxGeometry relative="1" as="geometry">
            <mxPoint x="320" y="280" as="sourcePoint" />
            <mxPoint x="480" y="280" as="targetPoint" />
          </mxGeometry>
        </mxCell>
        <mxCell id="jEEAlRVITa8a3OwtmOjl-52" value="1" style="resizable=0;html=1;whiteSpace=wrap;align=right;verticalAlign=bottom;" connectable="0" vertex="1" parent="jEEAlRVITa8a3OwtmOjl-51">
          <mxGeometry x="1" relative="1" as="geometry" />
        </mxCell>
        <mxCell id="jEEAlRVITa8a3OwtmOjl-54" value="Product" style="whiteSpace=wrap;html=1;align=center;" vertex="1" parent="1">
          <mxGeometry x="270" y="530" width="100" height="40" as="geometry" />
        </mxCell>
        <mxCell id="jEEAlRVITa8a3OwtmOjl-55" value="ProductID" style="ellipse;whiteSpace=wrap;html=1;align=center;fontStyle=4;" vertex="1" parent="1">
          <mxGeometry x="60" y="510" width="90" height="30" as="geometry" />
        </mxCell>
        <mxCell id="jEEAlRVITa8a3OwtmOjl-56" value="" style="endArrow=none;html=1;rounded=0;entryX=0;entryY=0.5;entryDx=0;entryDy=0;exitX=1;exitY=0.5;exitDx=0;exitDy=0;" edge="1" parent="1" source="jEEAlRVITa8a3OwtmOjl-55" target="jEEAlRVITa8a3OwtmOjl-54">
          <mxGeometry relative="1" as="geometry">
            <mxPoint x="310" y="460" as="sourcePoint" />
            <mxPoint x="470" y="460" as="targetPoint" />
          </mxGeometry>
        </mxCell>
        <mxCell id="jEEAlRVITa8a3OwtmOjl-57" value="Name" style="ellipse;whiteSpace=wrap;html=1;align=center;" vertex="1" parent="1">
          <mxGeometry x="250" y="460" width="60" height="20" as="geometry" />
        </mxCell>
        <mxCell id="jEEAlRVITa8a3OwtmOjl-58" value="Category_ID" style="ellipse;whiteSpace=wrap;html=1;align=center;" vertex="1" parent="1">
          <mxGeometry x="160" y="625" width="100" height="30" as="geometry" />
        </mxCell>
        <mxCell id="jEEAlRVITa8a3OwtmOjl-59" value="Specifications" style="ellipse;whiteSpace=wrap;html=1;align=center;" vertex="1" parent="1">
          <mxGeometry x="370" y="482.5" width="90" height="25" as="geometry" />
        </mxCell>
        <mxCell id="jEEAlRVITa8a3OwtmOjl-60" value="Description" style="ellipse;whiteSpace=wrap;html=1;align=center;" vertex="1" parent="1">
          <mxGeometry x="310" y="440" width="80" height="30" as="geometry" />
        </mxCell>
        <mxCell id="jEEAlRVITa8a3OwtmOjl-61" value="Brand_ID" style="ellipse;whiteSpace=wrap;html=1;align=center;" vertex="1" parent="1">
          <mxGeometry x="70" y="560" width="100" height="30" as="geometry" />
        </mxCell>
        <mxCell id="jEEAlRVITa8a3OwtmOjl-62" value="" style="endArrow=none;html=1;rounded=0;exitX=0.365;exitY=1.005;exitDx=0;exitDy=0;exitPerimeter=0;entryX=0.591;entryY=0.008;entryDx=0;entryDy=0;entryPerimeter=0;" edge="1" parent="1" source="jEEAlRVITa8a3OwtmOjl-54" target="jEEAlRVITa8a3OwtmOjl-58">
          <mxGeometry relative="1" as="geometry">
            <mxPoint x="310" y="590" as="sourcePoint" />
            <mxPoint x="470" y="590" as="targetPoint" />
          </mxGeometry>
        </mxCell>
        <mxCell id="jEEAlRVITa8a3OwtmOjl-63" value="" style="endArrow=none;html=1;rounded=0;exitX=0.783;exitY=0.148;exitDx=0;exitDy=0;exitPerimeter=0;entryX=0;entryY=0.75;entryDx=0;entryDy=0;" edge="1" parent="1" source="jEEAlRVITa8a3OwtmOjl-61" target="jEEAlRVITa8a3OwtmOjl-54">
          <mxGeometry relative="1" as="geometry">
            <mxPoint x="310" y="590" as="sourcePoint" />
            <mxPoint x="260" y="560" as="targetPoint" />
          </mxGeometry>
        </mxCell>
        <mxCell id="jEEAlRVITa8a3OwtmOjl-65" value="" style="endArrow=none;html=1;rounded=0;entryX=0.439;entryY=1.028;entryDx=0;entryDy=0;entryPerimeter=0;" edge="1" parent="1" target="jEEAlRVITa8a3OwtmOjl-57">
          <mxGeometry relative="1" as="geometry">
            <mxPoint x="303" y="530" as="sourcePoint" />
            <mxPoint x="470" y="590" as="targetPoint" />
          </mxGeometry>
        </mxCell>
        <mxCell id="jEEAlRVITa8a3OwtmOjl-66" value="" style="endArrow=none;html=1;rounded=0;entryX=0.049;entryY=0.772;entryDx=0;entryDy=0;entryPerimeter=0;exitX=0.951;exitY=0.032;exitDx=0;exitDy=0;exitPerimeter=0;" edge="1" parent="1" source="jEEAlRVITa8a3OwtmOjl-54" target="jEEAlRVITa8a3OwtmOjl-60">
          <mxGeometry relative="1" as="geometry">
            <mxPoint x="310" y="590" as="sourcePoint" />
            <mxPoint x="470" y="590" as="targetPoint" />
          </mxGeometry>
        </mxCell>
        <mxCell id="jEEAlRVITa8a3OwtmOjl-67" value="" style="endArrow=none;html=1;rounded=0;exitX=1;exitY=0.25;exitDx=0;exitDy=0;entryX=0;entryY=1;entryDx=0;entryDy=0;" edge="1" parent="1" source="jEEAlRVITa8a3OwtmOjl-54" target="jEEAlRVITa8a3OwtmOjl-59">
          <mxGeometry relative="1" as="geometry">
            <mxPoint x="310" y="590" as="sourcePoint" />
            <mxPoint x="380" y="500" as="targetPoint" />
          </mxGeometry>
        </mxCell>
        <mxCell id="jEEAlRVITa8a3OwtmOjl-68" value="TotalReviews" style="ellipse;whiteSpace=wrap;html=1;align=center;dashed=1;" vertex="1" parent="1">
          <mxGeometry x="360" y="640" width="85" height="30" as="geometry" />
        </mxCell>
        <mxCell id="jEEAlRVITa8a3OwtmOjl-69" value="AvgRating" style="ellipse;whiteSpace=wrap;html=1;align=center;dashed=1;" vertex="1" parent="1">
          <mxGeometry x="383" y="585" width="85" height="40" as="geometry" />
        </mxCell>
        <mxCell id="jEEAlRVITa8a3OwtmOjl-70" value="" style="endArrow=none;html=1;rounded=0;exitX=0.962;exitY=0.992;exitDx=0;exitDy=0;exitPerimeter=0;entryX=0;entryY=0;entryDx=0;entryDy=0;" edge="1" parent="1" source="jEEAlRVITa8a3OwtmOjl-54" target="jEEAlRVITa8a3OwtmOjl-69">
          <mxGeometry relative="1" as="geometry">
            <mxPoint x="310" y="640" as="sourcePoint" />
            <mxPoint x="470" y="640" as="targetPoint" />
          </mxGeometry>
        </mxCell>
        <mxCell id="jEEAlRVITa8a3OwtmOjl-71" value="" style="endArrow=none;html=1;rounded=0;exitX=0.75;exitY=1;exitDx=0;exitDy=0;entryX=0.4;entryY=0;entryDx=0;entryDy=0;entryPerimeter=0;" edge="1" parent="1" source="jEEAlRVITa8a3OwtmOjl-54" target="jEEAlRVITa8a3OwtmOjl-68">
          <mxGeometry relative="1" as="geometry">
            <mxPoint x="310" y="640" as="sourcePoint" />
            <mxPoint x="470" y="640" as="targetPoint" />
          </mxGeometry>
        </mxCell>
        <mxCell id="jEEAlRVITa8a3OwtmOjl-72" value="has" style="shape=rhombus;perimeter=rhombusPerimeter;whiteSpace=wrap;html=1;align=center;" vertex="1" parent="1">
          <mxGeometry x="50" y="360" width="90" height="40" as="geometry" />
        </mxCell>
        <mxCell id="jEEAlRVITa8a3OwtmOjl-73" value="Belong_to" style="shape=rhombus;perimeter=rhombusPerimeter;whiteSpace=wrap;html=1;align=center;" vertex="1" parent="1">
          <mxGeometry x="10" y="460" width="120" height="40" as="geometry" />
        </mxCell>
        <mxCell id="jEEAlRVITa8a3OwtmOjl-74" value="Category" style="whiteSpace=wrap;html=1;align=center;" vertex="1" parent="1">
          <mxGeometry x="-150" y="430" width="100" height="40" as="geometry" />
        </mxCell>
        <mxCell id="jEEAlRVITa8a3OwtmOjl-75" value="ParentCategory" style="ellipse;whiteSpace=wrap;html=1;align=center;" vertex="1" parent="1">
          <mxGeometry x="-60" y="500" width="100" height="40" as="geometry" />
        </mxCell>
        <mxCell id="jEEAlRVITa8a3OwtmOjl-76" value="Name" style="ellipse;whiteSpace=wrap;html=1;align=center;" vertex="1" parent="1">
          <mxGeometry x="-160" y="510" width="100" height="40" as="geometry" />
        </mxCell>
        <mxCell id="jEEAlRVITa8a3OwtmOjl-77" value="" style="endArrow=none;html=1;rounded=0;exitX=0.313;exitY=1.021;exitDx=0;exitDy=0;exitPerimeter=0;entryX=0.5;entryY=0;entryDx=0;entryDy=0;" edge="1" parent="1" source="jEEAlRVITa8a3OwtmOjl-74" target="jEEAlRVITa8a3OwtmOjl-76">
          <mxGeometry relative="1" as="geometry">
            <mxPoint x="200" y="580" as="sourcePoint" />
            <mxPoint x="360" y="580" as="targetPoint" />
          </mxGeometry>
        </mxCell>
        <mxCell id="jEEAlRVITa8a3OwtmOjl-78" value="" style="endArrow=none;html=1;rounded=0;exitX=0.853;exitY=1.038;exitDx=0;exitDy=0;exitPerimeter=0;entryX=0.053;entryY=0.254;entryDx=0;entryDy=0;entryPerimeter=0;" edge="1" parent="1" source="jEEAlRVITa8a3OwtmOjl-74" target="jEEAlRVITa8a3OwtmOjl-75">
          <mxGeometry relative="1" as="geometry">
            <mxPoint x="200" y="580" as="sourcePoint" />
            <mxPoint x="360" y="580" as="targetPoint" />
          </mxGeometry>
        </mxCell>
        <mxCell id="jEEAlRVITa8a3OwtmOjl-79" value="CategoryID" style="ellipse;whiteSpace=wrap;html=1;align=center;fontStyle=4;" vertex="1" parent="1">
          <mxGeometry x="-270" y="420" width="100" height="40" as="geometry" />
        </mxCell>
        <mxCell id="jEEAlRVITa8a3OwtmOjl-80" value="" style="endArrow=none;html=1;rounded=0;exitX=1;exitY=0.5;exitDx=0;exitDy=0;entryX=0;entryY=0.5;entryDx=0;entryDy=0;" edge="1" parent="1" source="jEEAlRVITa8a3OwtmOjl-79" target="jEEAlRVITa8a3OwtmOjl-74">
          <mxGeometry relative="1" as="geometry">
            <mxPoint x="200" y="580" as="sourcePoint" />
            <mxPoint x="360" y="580" as="targetPoint" />
          </mxGeometry>
        </mxCell>
        <mxCell id="jEEAlRVITa8a3OwtmOjl-81" value="" style="shape=link;html=1;rounded=0;entryX=1;entryY=0.5;entryDx=0;entryDy=0;exitX=0;exitY=0;exitDx=0;exitDy=0;" edge="1" parent="1" source="jEEAlRVITa8a3OwtmOjl-54" target="jEEAlRVITa8a3OwtmOjl-73">
          <mxGeometry relative="1" as="geometry">
            <mxPoint x="200" y="580" as="sourcePoint" />
            <mxPoint x="360" y="580" as="targetPoint" />
          </mxGeometry>
        </mxCell>
        <mxCell id="jEEAlRVITa8a3OwtmOjl-82" value="1" style="resizable=0;html=1;whiteSpace=wrap;align=right;verticalAlign=bottom;" connectable="0" vertex="1" parent="jEEAlRVITa8a3OwtmOjl-81">
          <mxGeometry x="1" relative="1" as="geometry" />
        </mxCell>
        <mxCell id="jEEAlRVITa8a3OwtmOjl-83" value="" style="endArrow=none;html=1;rounded=0;entryX=0;entryY=0.5;entryDx=0;entryDy=0;exitX=1;exitY=0;exitDx=0;exitDy=0;" edge="1" parent="1" source="jEEAlRVITa8a3OwtmOjl-74" target="jEEAlRVITa8a3OwtmOjl-73">
          <mxGeometry relative="1" as="geometry">
            <mxPoint x="200" y="580" as="sourcePoint" />
            <mxPoint x="360" y="580" as="targetPoint" />
          </mxGeometry>
        </mxCell>
        <mxCell id="jEEAlRVITa8a3OwtmOjl-84" value="N" style="resizable=0;html=1;whiteSpace=wrap;align=right;verticalAlign=bottom;" connectable="0" vertex="1" parent="jEEAlRVITa8a3OwtmOjl-83">
          <mxGeometry x="1" relative="1" as="geometry">
            <mxPoint x="-15" y="12" as="offset" />
          </mxGeometry>
        </mxCell>
        <mxCell id="jEEAlRVITa8a3OwtmOjl-86" value="" style="endArrow=none;html=1;rounded=0;entryX=0.5;entryY=0;entryDx=0;entryDy=0;exitX=0.58;exitY=1.021;exitDx=0;exitDy=0;exitPerimeter=0;" edge="1" parent="1" source="jEEAlRVITa8a3OwtmOjl-43" target="jEEAlRVITa8a3OwtmOjl-72">
          <mxGeometry relative="1" as="geometry">
            <mxPoint x="200" y="410" as="sourcePoint" />
            <mxPoint x="360" y="410" as="targetPoint" />
          </mxGeometry>
        </mxCell>
        <mxCell id="jEEAlRVITa8a3OwtmOjl-87" value="1" style="resizable=0;html=1;whiteSpace=wrap;align=right;verticalAlign=bottom;" connectable="0" vertex="1" parent="jEEAlRVITa8a3OwtmOjl-86">
          <mxGeometry x="1" relative="1" as="geometry" />
        </mxCell>
        <mxCell id="jEEAlRVITa8a3OwtmOjl-88" value="" style="endArrow=none;html=1;rounded=0;entryX=0.585;entryY=0.921;entryDx=0;entryDy=0;entryPerimeter=0;exitX=0.2;exitY=0;exitDx=0;exitDy=0;exitPerimeter=0;" edge="1" parent="1" source="jEEAlRVITa8a3OwtmOjl-54" target="jEEAlRVITa8a3OwtmOjl-72">
          <mxGeometry relative="1" as="geometry">
            <mxPoint x="200" y="490" as="sourcePoint" />
            <mxPoint x="360" y="490" as="targetPoint" />
          </mxGeometry>
        </mxCell>
        <mxCell id="jEEAlRVITa8a3OwtmOjl-89" value="N" style="resizable=0;html=1;whiteSpace=wrap;align=right;verticalAlign=bottom;" connectable="0" vertex="1" parent="jEEAlRVITa8a3OwtmOjl-88">
          <mxGeometry x="1" relative="1" as="geometry">
            <mxPoint x="27" y="13" as="offset" />
          </mxGeometry>
        </mxCell>
        <mxCell id="jEEAlRVITa8a3OwtmOjl-90" value="Retailer" style="whiteSpace=wrap;html=1;align=center;" vertex="1" parent="1">
          <mxGeometry x="715" y="577.5" width="100" height="40" as="geometry" />
        </mxCell>
        <mxCell id="jEEAlRVITa8a3OwtmOjl-91" value="Associated" style="shape=rhombus;perimeter=rhombusPerimeter;whiteSpace=wrap;html=1;align=center;" vertex="1" parent="1">
          <mxGeometry x="645" y="460" width="120" height="40" as="geometry" />
        </mxCell>
        <mxCell id="jEEAlRVITa8a3OwtmOjl-92" value="" style="endArrow=none;html=1;rounded=0;" edge="1" parent="1" source="jEEAlRVITa8a3OwtmOjl-16" target="jEEAlRVITa8a3OwtmOjl-91">
          <mxGeometry relative="1" as="geometry">
            <mxPoint x="480" y="520" as="sourcePoint" />
            <mxPoint x="640" y="520" as="targetPoint" />
          </mxGeometry>
        </mxCell>
        <mxCell id="jEEAlRVITa8a3OwtmOjl-93" value="N" style="resizable=0;html=1;whiteSpace=wrap;align=right;verticalAlign=bottom;" connectable="0" vertex="1" parent="jEEAlRVITa8a3OwtmOjl-92">
          <mxGeometry x="1" relative="1" as="geometry">
            <mxPoint x="-5" y="-2" as="offset" />
          </mxGeometry>
        </mxCell>
        <mxCell id="jEEAlRVITa8a3OwtmOjl-94" value="" style="endArrow=none;html=1;rounded=0;entryX=0.5;entryY=1;entryDx=0;entryDy=0;exitX=0.407;exitY=0.023;exitDx=0;exitDy=0;exitPerimeter=0;" edge="1" parent="1" source="jEEAlRVITa8a3OwtmOjl-90" target="jEEAlRVITa8a3OwtmOjl-91">
          <mxGeometry relative="1" as="geometry">
            <mxPoint x="480" y="520" as="sourcePoint" />
            <mxPoint x="640" y="520" as="targetPoint" />
          </mxGeometry>
        </mxCell>
        <mxCell id="jEEAlRVITa8a3OwtmOjl-95" value="1" style="resizable=0;html=1;whiteSpace=wrap;align=right;verticalAlign=bottom;" connectable="0" vertex="1" parent="jEEAlRVITa8a3OwtmOjl-94">
          <mxGeometry x="1" relative="1" as="geometry">
            <mxPoint x="20" y="10" as="offset" />
          </mxGeometry>
        </mxCell>
        <mxCell id="jEEAlRVITa8a3OwtmOjl-96" value="Price" style="ellipse;whiteSpace=wrap;html=1;align=center;" vertex="1" parent="1">
          <mxGeometry x="460" y="617.5" width="70" height="30" as="geometry" />
        </mxCell>
        <mxCell id="jEEAlRVITa8a3OwtmOjl-97" value="" style="endArrow=none;html=1;rounded=0;entryX=0.41;entryY=0.061;entryDx=0;entryDy=0;exitX=0;exitY=1;exitDx=0;exitDy=0;entryPerimeter=0;" edge="1" parent="1" source="jEEAlRVITa8a3OwtmOjl-98" target="jEEAlRVITa8a3OwtmOjl-96">
          <mxGeometry relative="1" as="geometry">
            <mxPoint x="430" y="520" as="sourcePoint" />
            <mxPoint x="590" y="520" as="targetPoint" />
          </mxGeometry>
        </mxCell>
        <mxCell id="jEEAlRVITa8a3OwtmOjl-98" value="Sells" style="shape=rhombus;perimeter=rhombusPerimeter;whiteSpace=wrap;html=1;align=center;" vertex="1" parent="1">
          <mxGeometry x="490" y="550" width="110" height="50" as="geometry" />
        </mxCell>
        <mxCell id="jEEAlRVITa8a3OwtmOjl-102" value="" style="endArrow=none;html=1;rounded=0;entryX=0;entryY=0.5;entryDx=0;entryDy=0;exitX=1;exitY=0.5;exitDx=0;exitDy=0;" edge="1" parent="1" source="jEEAlRVITa8a3OwtmOjl-54" target="jEEAlRVITa8a3OwtmOjl-98">
          <mxGeometry relative="1" as="geometry">
            <mxPoint x="410" y="530" as="sourcePoint" />
            <mxPoint x="570" y="530" as="targetPoint" />
          </mxGeometry>
        </mxCell>
        <mxCell id="jEEAlRVITa8a3OwtmOjl-103" value="N" style="resizable=0;html=1;whiteSpace=wrap;align=right;verticalAlign=bottom;" connectable="0" vertex="1" parent="jEEAlRVITa8a3OwtmOjl-102">
          <mxGeometry x="1" relative="1" as="geometry" />
        </mxCell>
        <mxCell id="jEEAlRVITa8a3OwtmOjl-110" value="ProductID" style="ellipse;whiteSpace=wrap;html=1;align=center;fontStyle=4;" vertex="1" parent="1">
          <mxGeometry x="490" y="477.5" width="80" height="30" as="geometry" />
        </mxCell>
        <mxCell id="jEEAlRVITa8a3OwtmOjl-111" value="RetailerID" style="ellipse;whiteSpace=wrap;html=1;align=center;fontStyle=4;" vertex="1" parent="1">
          <mxGeometry x="570" y="490" width="80" height="25" as="geometry" />
        </mxCell>
        <mxCell id="jEEAlRVITa8a3OwtmOjl-113" value="" style="endArrow=none;html=1;rounded=0;entryX=0.161;entryY=0.33;entryDx=0;entryDy=0;entryPerimeter=0;exitX=0.237;exitY=0.95;exitDx=0;exitDy=0;exitPerimeter=0;" edge="1" parent="1" source="jEEAlRVITa8a3OwtmOjl-110" target="jEEAlRVITa8a3OwtmOjl-98">
          <mxGeometry relative="1" as="geometry">
            <mxPoint x="410" y="530" as="sourcePoint" />
            <mxPoint x="570" y="530" as="targetPoint" />
          </mxGeometry>
        </mxCell>
        <mxCell id="jEEAlRVITa8a3OwtmOjl-114" value="" style="endArrow=none;html=1;rounded=0;exitX=0.703;exitY=0.23;exitDx=0;exitDy=0;exitPerimeter=0;entryX=0.5;entryY=1;entryDx=0;entryDy=0;" edge="1" parent="1" source="jEEAlRVITa8a3OwtmOjl-98" target="jEEAlRVITa8a3OwtmOjl-111">
          <mxGeometry relative="1" as="geometry">
            <mxPoint x="480" y="470" as="sourcePoint" />
            <mxPoint x="640" y="470" as="targetPoint" />
          </mxGeometry>
        </mxCell>
        <mxCell id="jEEAlRVITa8a3OwtmOjl-115" value="RetailerID" style="ellipse;whiteSpace=wrap;html=1;align=center;fontStyle=4;" vertex="1" parent="1">
          <mxGeometry x="660" y="527.5" width="75" height="30" as="geometry" />
        </mxCell>
        <mxCell id="jEEAlRVITa8a3OwtmOjl-117" value="Name" style="ellipse;whiteSpace=wrap;html=1;align=center;" vertex="1" parent="1">
          <mxGeometry x="670" y="650" width="70" height="25" as="geometry" />
        </mxCell>
        <mxCell id="jEEAlRVITa8a3OwtmOjl-119" value="Logo_URL" style="ellipse;whiteSpace=wrap;html=1;align=center;" vertex="1" parent="1">
          <mxGeometry x="800" y="640" width="75" height="30" as="geometry" />
        </mxCell>
        <mxCell id="jEEAlRVITa8a3OwtmOjl-120" value="Website" style="ellipse;whiteSpace=wrap;html=1;align=center;" vertex="1" parent="1">
          <mxGeometry x="800" y="530" width="85" height="25" as="geometry" />
        </mxCell>
        <mxCell id="jEEAlRVITa8a3OwtmOjl-121" value="" style="endArrow=none;html=1;rounded=0;entryX=0.5;entryY=1;entryDx=0;entryDy=0;exitX=0;exitY=0;exitDx=0;exitDy=0;" edge="1" parent="1" source="jEEAlRVITa8a3OwtmOjl-90" target="jEEAlRVITa8a3OwtmOjl-115">
          <mxGeometry relative="1" as="geometry">
            <mxPoint x="740" y="610" as="sourcePoint" />
            <mxPoint x="900" y="610" as="targetPoint" />
          </mxGeometry>
        </mxCell>
        <mxCell id="jEEAlRVITa8a3OwtmOjl-122" value="" style="endArrow=none;html=1;rounded=0;entryX=0.416;entryY=0.993;entryDx=0;entryDy=0;entryPerimeter=0;exitX=0.917;exitY=0.012;exitDx=0;exitDy=0;exitPerimeter=0;" edge="1" parent="1" source="jEEAlRVITa8a3OwtmOjl-90" target="jEEAlRVITa8a3OwtmOjl-120">
          <mxGeometry relative="1" as="geometry">
            <mxPoint x="740" y="610" as="sourcePoint" />
            <mxPoint x="900" y="610" as="targetPoint" />
          </mxGeometry>
        </mxCell>
        <mxCell id="jEEAlRVITa8a3OwtmOjl-124" value="" style="endArrow=none;html=1;rounded=0;exitX=1;exitY=0;exitDx=0;exitDy=0;entryX=0.31;entryY=1.033;entryDx=0;entryDy=0;entryPerimeter=0;" edge="1" parent="1" source="jEEAlRVITa8a3OwtmOjl-117" target="jEEAlRVITa8a3OwtmOjl-90">
          <mxGeometry relative="1" as="geometry">
            <mxPoint x="740" y="610" as="sourcePoint" />
            <mxPoint x="900" y="610" as="targetPoint" />
          </mxGeometry>
        </mxCell>
        <mxCell id="jEEAlRVITa8a3OwtmOjl-125" value="" style="endArrow=none;html=1;rounded=0;entryX=0.5;entryY=0;entryDx=0;entryDy=0;exitX=0.81;exitY=1.029;exitDx=0;exitDy=0;exitPerimeter=0;" edge="1" parent="1" source="jEEAlRVITa8a3OwtmOjl-90" target="jEEAlRVITa8a3OwtmOjl-119">
          <mxGeometry relative="1" as="geometry">
            <mxPoint x="740" y="610" as="sourcePoint" />
            <mxPoint x="900" y="610" as="targetPoint" />
          </mxGeometry>
        </mxCell>
        <mxCell id="jEEAlRVITa8a3OwtmOjl-126" value="StockStatus" style="ellipse;whiteSpace=wrap;html=1;align=center;" vertex="1" parent="1">
          <mxGeometry x="570" y="630" width="80" height="30" as="geometry" />
        </mxCell>
        <mxCell id="jEEAlRVITa8a3OwtmOjl-127" value="" style="endArrow=none;html=1;rounded=0;entryX=0.5;entryY=0;entryDx=0;entryDy=0;exitX=0.83;exitY=0.657;exitDx=0;exitDy=0;exitPerimeter=0;" edge="1" parent="1" source="jEEAlRVITa8a3OwtmOjl-98" target="jEEAlRVITa8a3OwtmOjl-126">
          <mxGeometry relative="1" as="geometry">
            <mxPoint x="600" y="520" as="sourcePoint" />
            <mxPoint x="760" y="520" as="targetPoint" />
          </mxGeometry>
        </mxCell>
        <mxCell id="jEEAlRVITa8a3OwtmOjl-128" value="LastUpdated" style="ellipse;whiteSpace=wrap;html=1;align=center;" vertex="1" parent="1">
          <mxGeometry x="505" y="650" width="80" height="30" as="geometry" />
        </mxCell>
        <mxCell id="jEEAlRVITa8a3OwtmOjl-129" value="" style="endArrow=none;html=1;rounded=0;exitX=0.5;exitY=1;exitDx=0;exitDy=0;" edge="1" parent="1" source="jEEAlRVITa8a3OwtmOjl-98" target="jEEAlRVITa8a3OwtmOjl-128">
          <mxGeometry relative="1" as="geometry">
            <mxPoint x="600" y="520" as="sourcePoint" />
            <mxPoint x="760" y="520" as="targetPoint" />
          </mxGeometry>
        </mxCell>
        <mxCell id="jEEAlRVITa8a3OwtmOjl-130" value="Brand" style="whiteSpace=wrap;html=1;align=center;" vertex="1" parent="1">
          <mxGeometry x="-160" y="630" width="80" height="20" as="geometry" />
        </mxCell>
        <mxCell id="jEEAlRVITa8a3OwtmOjl-131" value="Has" style="shape=rhombus;perimeter=rhombusPerimeter;whiteSpace=wrap;html=1;align=center;" vertex="1" parent="1">
          <mxGeometry x="10" y="617.5" width="90" height="30" as="geometry" />
        </mxCell>
        <mxCell id="jEEAlRVITa8a3OwtmOjl-132" value="" style="endArrow=none;html=1;rounded=0;entryX=0;entryY=0.5;entryDx=0;entryDy=0;exitX=1;exitY=0;exitDx=0;exitDy=0;" edge="1" parent="1" source="jEEAlRVITa8a3OwtmOjl-130" target="jEEAlRVITa8a3OwtmOjl-131">
          <mxGeometry relative="1" as="geometry">
            <mxPoint x="350" y="560" as="sourcePoint" />
            <mxPoint x="510" y="560" as="targetPoint" />
          </mxGeometry>
        </mxCell>
        <mxCell id="jEEAlRVITa8a3OwtmOjl-133" value="1" style="resizable=0;html=1;whiteSpace=wrap;align=right;verticalAlign=bottom;" connectable="0" vertex="1" parent="jEEAlRVITa8a3OwtmOjl-132">
          <mxGeometry x="1" relative="1" as="geometry" />
        </mxCell>
        <mxCell id="jEEAlRVITa8a3OwtmOjl-136" value="" style="shape=link;html=1;rounded=0;exitX=0;exitY=1;exitDx=0;exitDy=0;" edge="1" parent="1" source="jEEAlRVITa8a3OwtmOjl-54" target="jEEAlRVITa8a3OwtmOjl-131">
          <mxGeometry relative="1" as="geometry">
            <mxPoint x="350" y="560" as="sourcePoint" />
            <mxPoint x="510" y="560" as="targetPoint" />
          </mxGeometry>
        </mxCell>
        <mxCell id="jEEAlRVITa8a3OwtmOjl-137" value="N" style="resizable=0;html=1;whiteSpace=wrap;align=right;verticalAlign=bottom;" connectable="0" vertex="1" parent="jEEAlRVITa8a3OwtmOjl-136">
          <mxGeometry x="1" relative="1" as="geometry" />
        </mxCell>
        <mxCell id="jEEAlRVITa8a3OwtmOjl-138" value="" style="shape=link;html=1;rounded=0;entryX=0;entryY=0.5;entryDx=0;entryDy=0;exitX=1;exitY=0.5;exitDx=0;exitDy=0;" edge="1" parent="1" source="jEEAlRVITa8a3OwtmOjl-98" target="jEEAlRVITa8a3OwtmOjl-90">
          <mxGeometry relative="1" as="geometry">
            <mxPoint x="620" y="550" as="sourcePoint" />
            <mxPoint x="780" y="550" as="targetPoint" />
          </mxGeometry>
        </mxCell>
        <mxCell id="jEEAlRVITa8a3OwtmOjl-139" value="M" style="resizable=0;html=1;whiteSpace=wrap;align=left;verticalAlign=bottom;" connectable="0" vertex="1" parent="jEEAlRVITa8a3OwtmOjl-138">
          <mxGeometry x="-1" relative="1" as="geometry" />
        </mxCell>
        <mxCell id="jEEAlRVITa8a3OwtmOjl-144" value="BrandID" style="ellipse;whiteSpace=wrap;html=1;align=center;fontStyle=4;" vertex="1" parent="1">
          <mxGeometry x="-200" y="577.5" width="90" height="20" as="geometry" />
        </mxCell>
        <mxCell id="jEEAlRVITa8a3OwtmOjl-146" value="Name" style="ellipse;whiteSpace=wrap;html=1;align=center;" vertex="1" parent="1">
          <mxGeometry x="-260" y="610" width="70" height="30" as="geometry" />
        </mxCell>
        <mxCell id="jEEAlRVITa8a3OwtmOjl-147" value="" style="endArrow=none;html=1;rounded=0;entryX=0.5;entryY=0;entryDx=0;entryDy=0;exitX=0.5;exitY=1;exitDx=0;exitDy=0;" edge="1" parent="1" source="jEEAlRVITa8a3OwtmOjl-144" target="jEEAlRVITa8a3OwtmOjl-130">
          <mxGeometry relative="1" as="geometry">
            <mxPoint x="-130" y="570" as="sourcePoint" />
            <mxPoint x="30" y="570" as="targetPoint" />
          </mxGeometry>
        </mxCell>
        <mxCell id="jEEAlRVITa8a3OwtmOjl-148" value="" style="endArrow=none;html=1;rounded=0;entryX=0;entryY=0.25;entryDx=0;entryDy=0;exitX=1;exitY=0.5;exitDx=0;exitDy=0;" edge="1" parent="1" source="jEEAlRVITa8a3OwtmOjl-146" target="jEEAlRVITa8a3OwtmOjl-130">
          <mxGeometry relative="1" as="geometry">
            <mxPoint x="-130" y="570" as="sourcePoint" />
            <mxPoint x="30" y="570" as="targetPoint" />
          </mxGeometry>
        </mxCell>
        <mxCell id="jEEAlRVITa8a3OwtmOjl-150" value="has" style="shape=rhombus;perimeter=rhombusPerimeter;whiteSpace=wrap;html=1;align=center;" vertex="1" parent="1">
          <mxGeometry x="260" y="670" width="100" height="45" as="geometry" />
        </mxCell>
        <mxCell id="jEEAlRVITa8a3OwtmOjl-151" value="" style="endArrow=none;html=1;rounded=0;entryX=0.5;entryY=0;entryDx=0;entryDy=0;exitX=0.5;exitY=1;exitDx=0;exitDy=0;" edge="1" parent="1" source="jEEAlRVITa8a3OwtmOjl-54" target="jEEAlRVITa8a3OwtmOjl-150">
          <mxGeometry relative="1" as="geometry">
            <mxPoint x="410" y="570" as="sourcePoint" />
            <mxPoint x="570" y="570" as="targetPoint" />
          </mxGeometry>
        </mxCell>
        <mxCell id="jEEAlRVITa8a3OwtmOjl-152" value="1" style="resizable=0;html=1;whiteSpace=wrap;align=right;verticalAlign=bottom;" connectable="0" vertex="1" parent="jEEAlRVITa8a3OwtmOjl-151">
          <mxGeometry x="1" relative="1" as="geometry" />
        </mxCell>
        <mxCell id="jEEAlRVITa8a3OwtmOjl-153" value="Images" style="whiteSpace=wrap;html=1;align=center;" vertex="1" parent="1">
          <mxGeometry x="280" y="770" width="100" height="40" as="geometry" />
        </mxCell>
        <mxCell id="jEEAlRVITa8a3OwtmOjl-154" value="ImageID" style="ellipse;whiteSpace=wrap;html=1;align=center;fontStyle=4;" vertex="1" parent="1">
          <mxGeometry x="130" y="760" width="100" height="40" as="geometry" />
        </mxCell>
        <mxCell id="jEEAlRVITa8a3OwtmOjl-155" value="ImageURL" style="ellipse;whiteSpace=wrap;html=1;align=center;" vertex="1" parent="1">
          <mxGeometry x="420" y="750" width="100" height="40" as="geometry" />
        </mxCell>
        <mxCell id="jEEAlRVITa8a3OwtmOjl-156" value="Caption" style="ellipse;whiteSpace=wrap;html=1;align=center;" vertex="1" parent="1">
          <mxGeometry x="400" y="840" width="100" height="40" as="geometry" />
        </mxCell>
        <mxCell id="jEEAlRVITa8a3OwtmOjl-157" value="ProductID" style="ellipse;whiteSpace=wrap;html=1;align=center;" vertex="1" parent="1">
          <mxGeometry x="160" y="850" width="100" height="50" as="geometry" />
        </mxCell>
        <mxCell id="jEEAlRVITa8a3OwtmOjl-158" value="" style="endArrow=none;html=1;rounded=0;entryX=0;entryY=0;entryDx=0;entryDy=0;exitX=1;exitY=0.75;exitDx=0;exitDy=0;" edge="1" parent="1" source="jEEAlRVITa8a3OwtmOjl-153" target="jEEAlRVITa8a3OwtmOjl-156">
          <mxGeometry relative="1" as="geometry">
            <mxPoint x="410" y="780" as="sourcePoint" />
            <mxPoint x="570" y="780" as="targetPoint" />
          </mxGeometry>
        </mxCell>
        <mxCell id="jEEAlRVITa8a3OwtmOjl-159" value="" style="endArrow=none;html=1;rounded=0;entryX=0;entryY=0.5;entryDx=0;entryDy=0;exitX=1;exitY=0.25;exitDx=0;exitDy=0;" edge="1" parent="1" source="jEEAlRVITa8a3OwtmOjl-153" target="jEEAlRVITa8a3OwtmOjl-155">
          <mxGeometry relative="1" as="geometry">
            <mxPoint x="410" y="780" as="sourcePoint" />
            <mxPoint x="570" y="780" as="targetPoint" />
          </mxGeometry>
        </mxCell>
        <mxCell id="jEEAlRVITa8a3OwtmOjl-160" value="" style="endArrow=none;html=1;rounded=0;entryX=0;entryY=0.5;entryDx=0;entryDy=0;exitX=1;exitY=0.5;exitDx=0;exitDy=0;" edge="1" parent="1" source="jEEAlRVITa8a3OwtmOjl-154" target="jEEAlRVITa8a3OwtmOjl-153">
          <mxGeometry relative="1" as="geometry">
            <mxPoint x="410" y="780" as="sourcePoint" />
            <mxPoint x="570" y="780" as="targetPoint" />
          </mxGeometry>
        </mxCell>
        <mxCell id="jEEAlRVITa8a3OwtmOjl-161" value="" style="endArrow=none;html=1;rounded=0;entryX=0.738;entryY=0.111;entryDx=0;entryDy=0;entryPerimeter=0;exitX=0;exitY=1;exitDx=0;exitDy=0;" edge="1" parent="1" source="jEEAlRVITa8a3OwtmOjl-153" target="jEEAlRVITa8a3OwtmOjl-157">
          <mxGeometry relative="1" as="geometry">
            <mxPoint x="410" y="780" as="sourcePoint" />
            <mxPoint x="570" y="780" as="targetPoint" />
          </mxGeometry>
        </mxCell>
        <mxCell id="jEEAlRVITa8a3OwtmOjl-162" value="" style="endArrow=none;html=1;rounded=0;entryX=0.5;entryY=1;entryDx=0;entryDy=0;exitX=0.5;exitY=0;exitDx=0;exitDy=0;" edge="1" parent="1" source="jEEAlRVITa8a3OwtmOjl-153" target="jEEAlRVITa8a3OwtmOjl-150">
          <mxGeometry relative="1" as="geometry">
            <mxPoint x="410" y="780" as="sourcePoint" />
            <mxPoint x="570" y="780" as="targetPoint" />
          </mxGeometry>
        </mxCell>
        <mxCell id="jEEAlRVITa8a3OwtmOjl-163" value="N" style="resizable=0;html=1;whiteSpace=wrap;align=right;verticalAlign=bottom;" connectable="0" vertex="1" parent="jEEAlRVITa8a3OwtmOjl-162">
          <mxGeometry x="1" relative="1" as="geometry">
            <mxPoint x="-10" y="15" as="offset" />
          </mxGeometry>
        </mxCell>
      </root>
    </mxGraphModel>
  </diagram>
</mxfile>
